<svg width="11" height="17" viewBox="0 0 11 17" fill="none" xmlns="http://www.w3.org/2000/svg">
<path d="M0.86719 8.47032C0.866904 8.25232 0.913048 8.03672 1.00255 7.83792C1.09205 7.63919 1.22283 7.46185 1.38612 7.31772L8.80557 0.777322C9.05144 0.570588 9.36825 0.468454 9.68829 0.492788C10.0083 0.517054 10.3062 0.665854 10.5181 0.907321C10.7301 1.14885 10.8394 1.46385 10.8226 1.78499C10.8058 2.10612 10.6642 2.40799 10.4282 2.62592L3.94019 8.34499C3.9224 8.36066 3.90812 8.37992 3.89833 8.40152C3.88862 8.42312 3.88355 8.44659 3.88355 8.47032C3.88355 8.49405 3.88862 8.51752 3.89833 8.53912C3.90812 8.56072 3.9224 8.58006 3.94019 8.59566L10.4282 14.3148C10.5537 14.4202 10.6569 14.5498 10.7316 14.6958C10.8064 14.8418 10.8513 15.0013 10.8637 15.1649C10.8761 15.3286 10.8557 15.493 10.8037 15.6487C10.7517 15.8043 10.6692 15.9479 10.5611 16.0712C10.4529 16.1944 10.3212 16.2947 10.1738 16.3662C10.0264 16.4377 9.86624 16.479 9.70269 16.4876C9.53914 16.4962 9.37552 16.4719 9.22146 16.4162C9.0674 16.3605 8.926 16.2746 8.80557 16.1634L1.38876 9.62499C1.22505 9.48059 1.0939 9.30299 1.00397 9.10392C0.914047 8.90485 0.867404 8.68885 0.86719 8.47032Z" fill="#EB5757"/>
</svg>
