<svg width="18" height="21" viewBox="0 0 18 21" fill="none" xmlns="http://www.w3.org/2000/svg">
<path d="M4.6438 5.63477C4.6438 6.79509 5.10473 7.90789 5.92521 8.72836C6.74568 9.54883 7.85848 10.0098 9.0188 10.0098C10.1791 10.0098 11.2919 9.54883 12.1124 8.72836C12.9329 7.90789 13.3938 6.79509 13.3938 5.63477C13.3938 4.47444 12.9329 3.36165 12.1124 2.54117C11.2919 1.7207 10.1791 1.25977 9.0188 1.25977C7.85848 1.25977 6.74568 1.7207 5.92521 2.54117C5.10473 3.36165 4.6438 4.47444 4.6438 5.63477V5.63477Z" stroke="#4F4F4F" stroke-width="1.25" stroke-linecap="round" stroke-linejoin="round"/>
<path d="M0.893799 20.0098C0.893799 17.8549 1.74982 15.7883 3.27356 14.2645C4.79729 12.7408 6.86391 11.8848 9.0188 11.8848C11.1737 11.8848 13.2403 12.7408 14.764 14.2645C16.2878 15.7883 17.1438 17.8549 17.1438 20.0098" stroke="#4F4F4F" stroke-width="1.25" stroke-linecap="round" stroke-linejoin="round"/>
</svg>
