<svg width="25" height="25" viewBox="0 0 25 25" fill="none" xmlns="http://www.w3.org/2000/svg">
<path fill-rule="evenodd" clip-rule="evenodd" d="M0.685547 5.88477C0.685547 4.64212 1.6929 3.63477 2.93555 3.63477H22.4355C23.6782 3.63477 24.6855 4.64211 24.6855 5.88477V22.3848C24.6855 23.6274 23.6782 24.6348 22.4355 24.6348H2.93555C1.69289 24.6348 0.685547 23.6274 0.685547 22.3848V5.88477ZM2.93555 5.13477C2.52133 5.13477 2.18555 5.47055 2.18555 5.88477V22.3848C2.18555 22.799 2.52134 23.1348 2.93555 23.1348H22.4355C22.8497 23.1348 23.1855 22.799 23.1855 22.3848V5.88477C23.1855 5.47056 22.8497 5.13477 22.4355 5.13477H2.93555Z" fill="#4F4F4F"/>
<path fill-rule="evenodd" clip-rule="evenodd" d="M0.685547 10.3848C0.685547 9.97055 1.02133 9.63477 1.43555 9.63477H23.9355C24.3498 9.63477 24.6855 9.97055 24.6855 10.3848C24.6855 10.799 24.3498 11.1348 23.9355 11.1348H1.43555C1.02133 11.1348 0.685547 10.799 0.685547 10.3848Z" fill="#4F4F4F"/>
<path fill-rule="evenodd" clip-rule="evenodd" d="M7.43555 0.634766C7.84976 0.634766 8.18555 0.970552 8.18555 1.38477V6.63477C8.18555 7.04898 7.84976 7.38477 7.43555 7.38477C7.02133 7.38477 6.68555 7.04898 6.68555 6.63477V1.38477C6.68555 0.970552 7.02133 0.634766 7.43555 0.634766Z" fill="#4F4F4F"/>
<path fill-rule="evenodd" clip-rule="evenodd" d="M17.9355 0.634766C18.3498 0.634766 18.6855 0.970552 18.6855 1.38477V6.63477C18.6855 7.04898 18.3498 7.38477 17.9355 7.38477C17.5213 7.38477 17.1855 7.04898 17.1855 6.63477V1.38477C17.1855 0.970552 17.5213 0.634766 17.9355 0.634766Z" fill="#4F4F4F"/>
<path fill-rule="evenodd" clip-rule="evenodd" d="M10.2585 15.2969C10.4657 15.2969 10.6335 15.129 10.6335 14.9219C10.6335 14.7148 10.4657 14.5469 10.2585 14.5469V13.7969C9.63721 13.7969 9.13354 14.3006 9.13354 14.9219C9.13354 15.5432 9.63721 16.0469 10.2585 16.0469V15.2969Z" fill="#4F4F4F"/>
<path fill-rule="evenodd" clip-rule="evenodd" d="M10.2585 13.7969C10.8799 13.7969 11.3835 14.3006 11.3835 14.9219C11.3835 15.5432 10.8799 16.0469 10.2585 16.0469V15.2969C10.0514 15.2969 9.88354 15.129 9.88354 14.9219C9.88354 14.7148 10.0514 14.5469 10.2585 14.5469V13.7969Z" fill="#4F4F4F"/>
<path fill-rule="evenodd" clip-rule="evenodd" d="M15.1125 15.2969C15.3197 15.2969 15.4875 15.129 15.4875 14.9219C15.4875 14.7148 15.3197 14.5469 15.1125 14.5469V13.7969C14.4912 13.7969 13.9875 14.3006 13.9875 14.9219C13.9875 15.5432 14.4912 16.0469 15.1125 16.0469V15.2969Z" fill="#4F4F4F"/>
<path fill-rule="evenodd" clip-rule="evenodd" d="M15.1125 13.7969C15.7339 13.7969 16.2375 14.3006 16.2375 14.9219C16.2375 15.5432 15.7339 16.0469 15.1125 16.0469V15.2969C14.9054 15.2969 14.7375 15.129 14.7375 14.9219C14.7375 14.7148 14.9054 14.5469 15.1125 14.5469V13.7969Z" fill="#4F4F4F"/>
<path fill-rule="evenodd" clip-rule="evenodd" d="M19.9666 15.2969C20.1737 15.2969 20.3416 15.129 20.3416 14.9219C20.3416 14.7148 20.1737 14.5469 19.9666 14.5469V13.7969C19.3452 13.7969 18.8416 14.3006 18.8416 14.9219C18.8416 15.5432 19.3452 16.0469 19.9666 16.0469V15.2969Z" fill="#4F4F4F"/>
<path fill-rule="evenodd" clip-rule="evenodd" d="M19.9666 13.7969C20.5879 13.7969 21.0916 14.3006 21.0916 14.9219C21.0916 15.5432 20.5879 16.0469 19.9666 16.0469V15.2969C19.7594 15.2969 19.5916 15.129 19.5916 14.9219C19.5916 14.7148 19.7594 14.5469 19.9666 14.5469V13.7969Z" fill="#4F4F4F"/>
<path fill-rule="evenodd" clip-rule="evenodd" d="M5.40454 19.7969C5.61165 19.7969 5.77954 19.629 5.77954 19.4219C5.77954 19.2148 5.61165 19.0469 5.40454 19.0469V18.2969C4.78323 18.2969 4.27954 18.8006 4.27954 19.4219C4.27954 20.0432 4.78323 20.5469 5.40454 20.5469V19.7969Z" fill="#4F4F4F"/>
<path fill-rule="evenodd" clip-rule="evenodd" d="M5.40454 18.2969C6.02588 18.2969 6.52954 18.8006 6.52954 19.4219C6.52954 20.0432 6.02588 20.5469 5.40454 20.5469V19.7969C5.19742 19.7969 5.02954 19.629 5.02954 19.4219C5.02954 19.2148 5.19742 19.0469 5.40454 19.0469V18.2969Z" fill="#4F4F4F"/>
<path fill-rule="evenodd" clip-rule="evenodd" d="M10.2585 19.7969C10.4657 19.7969 10.6335 19.629 10.6335 19.4219C10.6335 19.2148 10.4657 19.0469 10.2585 19.0469V18.2969C9.63721 18.2969 9.13354 18.8006 9.13354 19.4219C9.13354 20.0432 9.63721 20.5469 10.2585 20.5469V19.7969Z" fill="#4F4F4F"/>
<path fill-rule="evenodd" clip-rule="evenodd" d="M10.2585 18.2969C10.8799 18.2969 11.3835 18.8006 11.3835 19.4219C11.3835 20.0432 10.8799 20.5469 10.2585 20.5469V19.7969C10.0514 19.7969 9.88354 19.629 9.88354 19.4219C9.88354 19.2148 10.0514 19.0469 10.2585 19.0469V18.2969Z" fill="#4F4F4F"/>
<path fill-rule="evenodd" clip-rule="evenodd" d="M15.1125 19.7969C15.3197 19.7969 15.4875 19.629 15.4875 19.4219C15.4875 19.2148 15.3197 19.0469 15.1125 19.0469V18.2969C14.4912 18.2969 13.9875 18.8006 13.9875 19.4219C13.9875 20.0432 14.4912 20.5469 15.1125 20.5469V19.7969Z" fill="#4F4F4F"/>
<path fill-rule="evenodd" clip-rule="evenodd" d="M15.1125 18.2969C15.7339 18.2969 16.2375 18.8006 16.2375 19.4219C16.2375 20.0432 15.7339 20.5469 15.1125 20.5469V19.7969C14.9054 19.7969 14.7375 19.629 14.7375 19.4219C14.7375 19.2148 14.9054 19.0469 15.1125 19.0469V18.2969Z" fill="#4F4F4F"/>
</svg>
