<svg width="25" height="25" viewBox="0 0 25 25" fill="none" xmlns="http://www.w3.org/2000/svg">
<path fill-rule="evenodd" clip-rule="evenodd" d="M4.10205 10.3848C3.50531 10.3848 2.93302 10.6218 2.51106 11.0438C2.08911 11.4657 1.85205 12.0381 1.85205 12.6348V15.6348C1.85205 16.2315 2.08911 16.8038 2.51106 17.2257C2.93303 17.6477 3.50533 17.8848 4.10205 17.8848H4.85202L4.85205 17.8847V10.3848H4.10205ZM1.4504 9.98312C2.15366 9.27985 3.10749 8.88477 4.10205 8.88477H4.85205C5.24987 8.88477 5.63141 9.0428 5.91271 9.32411C6.19401 9.60541 6.35205 9.98694 6.35205 10.3848V17.8848C6.35205 18.2824 6.19412 18.664 5.91281 18.9453C5.63144 19.2268 5.24984 19.3848 4.85205 19.3848H4.10205C3.10747 19.3848 2.15365 18.9896 1.45041 18.2864C0.747135 17.5831 0.352051 16.6293 0.352051 15.6348V12.6348C0.352051 11.6403 0.747136 10.6864 1.4504 9.98312L1.4504 9.98312Z" fill="#4F4F4F"/>
<path fill-rule="evenodd" clip-rule="evenodd" d="M19.8521 10.3848H20.6021C21.1987 10.3848 21.7711 10.6218 22.193 11.0438M19.8521 10.3848L19.8521 10.3848V17.8847L19.8521 17.8848H20.6021C21.1987 17.8848 21.7711 17.6477 22.193 17.2257C22.615 16.8038 22.8521 16.2314 22.8521 15.6348V12.6348C22.8521 12.0381 22.615 11.4658 22.193 11.0438M18.7915 9.32401C19.0728 9.0427 19.4544 8.88477 19.8521 8.88477H20.6021C21.5966 8.88477 22.5504 9.27985 23.2537 9.98312L23.2537 9.98313C23.9569 10.6864 24.3521 11.6402 24.3521 12.6348V15.6348C24.3521 16.6293 23.9569 17.5832 23.2537 18.2864C22.5504 18.9896 21.5966 19.3848 20.6021 19.3848H19.8521C19.4543 19.3848 19.0726 19.2268 18.7912 18.9452C18.5099 18.6638 18.3521 18.2823 18.3521 17.8848V10.3848C18.3521 9.98707 18.51 9.60555 18.7913 9.3242C18.7914 9.32414 18.7915 9.32407 18.7915 9.32401Z" fill="#4F4F4F"/>
<path fill-rule="evenodd" clip-rule="evenodd" d="M12.3521 2.13477C10.3629 2.13477 8.45527 2.92494 7.04875 4.33146L7.04875 4.33147C5.64222 5.73798 4.85205 7.64564 4.85205 9.63477C4.85205 10.049 4.51626 10.3848 4.10205 10.3848C3.68784 10.3848 3.35205 10.049 3.35205 9.63477C3.35205 7.24782 4.30026 4.95863 5.98809 3.27081C5.98809 3.27081 5.98809 3.2708 5.98809 3.2708M5.98809 3.2708C7.67592 1.58297 9.9651 0.634766 12.3521 0.634766C14.739 0.634766 17.0282 1.58297 18.716 3.27082C20.4038 4.95862 21.3521 7.24781 21.3521 9.63477C21.3521 10.049 21.0163 10.3848 20.6021 10.3848C20.1878 10.3848 19.8521 10.049 19.8521 9.63477C19.8521 7.64564 19.0619 5.73799 17.6553 4.33147L17.6553 4.33145C16.2489 2.92494 14.3411 2.13477 12.3521 2.13477" fill="#4F4F4F"/>
<path fill-rule="evenodd" clip-rule="evenodd" d="M20.6021 17.8848C21.0163 17.8848 21.3521 18.2206 21.3521 18.6348V19.3848C21.3521 20.3793 20.9569 21.3332 20.2537 22.0364C19.5504 22.7396 18.5966 23.1348 17.6021 23.1348H15.3521C14.9378 23.1348 14.6021 22.799 14.6021 22.3848C14.6021 21.9706 14.9378 21.6348 15.3521 21.6348H17.6021C18.1987 21.6348 18.7711 21.3977 19.193 20.9757C19.615 20.5538 19.8521 19.9814 19.8521 19.3848V18.6348C19.8521 18.2206 20.1878 17.8848 20.6021 17.8848Z" fill="#4F4F4F"/>
<path fill-rule="evenodd" clip-rule="evenodd" d="M12.3521 21.6348C12.1531 21.6348 11.9623 21.7138 11.8217 21.8544C11.6811 21.995 11.6021 22.1858 11.6021 22.3848C11.6021 22.5837 11.6811 22.7745 11.8217 22.9151C11.9623 23.0557 12.1531 23.1348 12.3521 23.1348H13.8521C14.051 23.1348 14.2418 23.0557 14.3824 22.9151C14.523 22.7745 14.6021 22.5837 14.6021 22.3848C14.6021 22.1858 14.523 21.995 14.3824 21.8544C14.2418 21.7138 14.051 21.6348 13.8521 21.6348H12.3521ZM10.761 20.7937C11.183 20.3717 11.7554 20.1348 12.3521 20.1348H13.8521C14.4487 20.1348 15.0211 20.3717 15.4431 20.7937C15.8651 21.2157 16.1021 21.7881 16.1021 22.3848C16.1021 22.9814 15.8651 23.5538 15.4431 23.9758C15.0211 24.3978 14.4487 24.6348 13.8521 24.6348H12.3521C11.7554 24.6348 11.183 24.3978 10.761 23.9758C10.339 23.5538 10.1021 22.9814 10.1021 22.3848C10.1021 21.7881 10.339 21.2157 10.761 20.7937Z" fill="#4F4F4F"/>
</svg>
