<svg width="5" height="13" viewBox="0 0 5 13" fill="none" xmlns="http://www.w3.org/2000/svg">
<path d="M2.83414 12.5682C2.23414 12.5682 1.74081 12.3949 1.35414 12.0482C0.980807 11.6882 0.794141 11.2482 0.794141 10.7282C0.794141 10.1949 0.980807 9.7482 1.35414 9.3882C1.74081 9.0282 2.23414 8.8482 2.83414 8.8482C3.42081 8.8482 3.90081 9.0282 4.27414 9.3882C4.66081 9.7482 4.85414 10.1949 4.85414 10.7282C4.85414 11.2482 4.66081 11.6882 4.27414 12.0482C3.90081 12.3949 3.42081 12.5682 2.83414 12.5682ZM2.83414 4.4282C2.23414 4.4282 1.74081 4.25487 1.35414 3.9082C0.980807 3.5482 0.794141 3.1082 0.794141 2.5882C0.794141 2.05487 0.980807 1.6082 1.35414 1.2482C1.74081 0.888202 2.23414 0.708202 2.83414 0.708202C3.42081 0.708202 3.90081 0.888202 4.27414 1.2482C4.66081 1.6082 4.85414 2.05487 4.85414 2.5882C4.85414 3.1082 4.66081 3.5482 4.27414 3.9082C3.90081 4.25487 3.42081 4.4282 2.83414 4.4282Z" fill="#F2F2F2"/>
</svg>
