<svg width="8" height="12" viewBox="0 0 8 12" fill="none" xmlns="http://www.w3.org/2000/svg">
<path d="M7.41862 6.0735C7.41881 6.21883 7.38805 6.36256 7.32838 6.4951C7.26871 6.62758 7.18152 6.74581 7.07267 6.8419L2.12636 11.2022C1.96245 11.34 1.75124 11.4081 1.53789 11.3919C1.32453 11.3757 1.12597 11.2765 0.984658 11.1155C0.843343 10.9545 0.770501 10.7445 0.781696 10.5304C0.792896 10.3163 0.887248 10.1151 1.04458 9.96976L5.36995 6.15705C5.38181 6.14661 5.39133 6.13376 5.39786 6.11936C5.40433 6.10496 5.40771 6.08932 5.40771 6.0735C5.40771 6.05767 5.40433 6.04203 5.39786 6.02763C5.39133 6.01323 5.38181 6.00034 5.36995 5.98994L1.04458 2.1772C0.960944 2.10688 0.892177 2.02051 0.842325 1.92318C0.792472 1.82584 0.762544 1.7195 0.754296 1.61042C0.746044 1.50132 0.759644 1.39168 0.794286 1.28793C0.828929 1.18418 0.883924 1.08842 0.956034 1.00627C1.02814 0.92412 1.11591 0.857244 1.21419 0.809571C1.31246 0.761898 1.41925 0.73439 1.52829 0.728664C1.63732 0.722938 1.7464 0.73911 1.84911 0.776229C1.95181 0.813347 2.04608 0.870663 2.12636 0.944809L7.0709 5.30372C7.18005 5.39998 7.26748 5.51838 7.32743 5.6511C7.38738 5.78381 7.41848 5.92781 7.41862 6.0735Z" fill="#4F4F4F"/>
</svg>
