<svg width="19" height="18" viewBox="0 0 19 18" fill="none" xmlns="http://www.w3.org/2000/svg">
<g clip-path="url(#clip0_964_49258)">
<path fill-rule="evenodd" clip-rule="evenodd" d="M0.835938 3.21973C0.835938 2.90907 1.08778 2.65723 1.39844 2.65723H18.2734C18.5841 2.65723 18.8359 2.90907 18.8359 3.21973C18.8359 3.53039 18.5841 3.78223 18.2734 3.78223H1.39844C1.08778 3.78223 0.835938 3.53039 0.835938 3.21973Z" fill="#EB5757"/>
<path fill-rule="evenodd" clip-rule="evenodd" d="M2.63281 7.07324C2.63281 6.76258 2.88465 6.51074 3.19531 6.51074H16.4763C16.787 6.51074 17.0388 6.76258 17.0388 7.07324C17.0388 7.3839 16.787 7.63574 16.4763 7.63574H3.19531C2.88465 7.63574 2.63281 7.3839 2.63281 7.07324Z" fill="#EB5757"/>
<path fill-rule="evenodd" clip-rule="evenodd" d="M6.8125 14.7803C6.8125 14.4696 7.06434 14.2178 7.375 14.2178H12.295C12.6057 14.2178 12.8575 14.4696 12.8575 14.7803C12.8575 15.0909 12.6057 15.3428 12.295 15.3428H7.375C7.06434 15.3428 6.8125 15.0909 6.8125 14.7803Z" fill="#EB5757"/>
<path fill-rule="evenodd" clip-rule="evenodd" d="M4.43164 10.9268C4.43164 10.6161 4.68348 10.3643 4.99414 10.3643H14.6796C14.9903 10.3643 15.2421 10.6161 15.2421 10.9268C15.2421 11.2374 14.9903 11.4893 14.6796 11.4893H4.99414C4.68348 11.4893 4.43164 11.2374 4.43164 10.9268Z" fill="#EB5757"/>
</g>
<defs>
<clipPath id="clip0_964_49258">
<rect width="18" height="18" fill="white" transform="translate(0.835938)"/>
</clipPath>
</defs>
</svg>
