<svg width="17" height="16" viewBox="0 0 17 16" fill="none" xmlns="http://www.w3.org/2000/svg">
<path d="M12.1412 0.462891C10.6993 0.462891 9.31532 1.13789 8.41204 2.20456C7.50875 1.13789 6.12481 0.462891 4.68287 0.462891C2.13046 0.462891 0.125 2.47956 0.125 5.04622C0.125 8.19622 2.94259 10.7629 7.21042 14.6629L8.41204 15.7546L9.61366 14.6546C13.8815 10.7629 16.6991 8.19622 16.6991 5.04622C16.6991 2.47956 14.6936 0.462891 12.1412 0.462891ZM8.49491 13.4212L8.41204 13.5046L8.32917 13.4212C4.38454 9.82956 1.78241 7.45456 1.78241 5.04622C1.78241 3.37956 3.02546 2.12956 4.68287 2.12956C5.95907 2.12956 7.20213 2.95456 7.64134 4.09622H9.19102C9.62194 2.95456 10.865 2.12956 12.1412 2.12956C13.7986 2.12956 15.0417 3.37956 15.0417 5.04622C15.0417 7.45456 12.4395 9.82956 8.49491 13.4212Z" fill="#EB5757"/>
</svg>
