<svg width="21" height="21" viewBox="0 0 21 21" fill="none" xmlns="http://www.w3.org/2000/svg">
<path fill-rule="evenodd" clip-rule="evenodd" d="M10.2799 1.62249C10.2799 1.228 10.5997 0.908203 10.9941 0.908203C12.972 0.908203 14.9054 1.49469 16.5499 2.59351C18.1943 3.69232 19.4761 5.25411 20.2329 7.08137C20.9898 8.90863 21.1879 10.9193 20.802 12.8591C20.4161 14.7989 19.4637 16.5807 18.0652 17.9793C16.6667 19.3778 14.8849 20.3302 12.9451 20.7161C11.0052 21.1019 8.99457 20.9039 7.16731 20.147C5.34005 19.3901 3.77826 18.1084 2.67945 16.4639C1.58071 14.8195 0.994225 12.8863 0.994147 10.9086C0.991101 8.06474 2.08532 5.32934 4.04888 3.27216C4.32126 2.9868 4.7734 2.97627 5.05876 3.24865C5.34412 3.52103 5.35465 3.97317 5.08227 4.25853C3.37265 6.04966 2.41998 8.43133 2.42272 10.9074L2.42272 10.9082C2.42272 12.6035 2.92542 14.2607 3.86726 15.6702C4.80911 17.0798 6.14778 18.1784 7.714 18.8272C9.28023 19.4759 11.0037 19.6457 12.6664 19.3149C14.329 18.9842 15.8563 18.1679 17.0551 16.9691C18.2538 15.7704 19.0702 14.2431 19.4009 12.5804C19.7316 10.9177 19.5619 9.19428 18.9131 7.62806C18.2644 6.06184 17.1657 4.72316 15.7562 3.78132C14.3466 2.83948 12.6894 2.33677 10.9941 2.33677C10.5997 2.33677 10.2799 2.01698 10.2799 1.62249Z" fill="#EB5757"/>
<path fill-rule="evenodd" clip-rule="evenodd" d="M4.93324 3.15257C5.09568 3.25004 5.21275 3.40805 5.2587 3.59183L5.97298 6.44897C6.06866 6.83168 5.83597 7.21949 5.45326 7.31517C5.07055 7.41085 4.68274 7.17816 4.58706 6.79545L4.04602 4.63127L1.88184 5.17231C1.49912 5.26799 1.11131 5.03531 1.01564 4.65259C0.919959 4.26988 1.15264 3.88207 1.53536 3.7864L4.3925 3.07211C4.57628 3.02616 4.77079 3.05511 4.93324 3.15257Z" fill="#EB5757"/>
<path fill-rule="evenodd" clip-rule="evenodd" d="M10.9936 5.19336C11.3881 5.19336 11.7079 5.51316 11.7079 5.90765V11.1805L15.0273 12.8402C15.3801 13.0166 15.5232 13.4457 15.3467 13.7985C15.1703 14.1514 14.7413 14.2944 14.3884 14.1179L10.6741 12.2608C10.4322 12.1398 10.2793 11.8925 10.2793 11.6219V5.90765C10.2793 5.51316 10.5991 5.19336 10.9936 5.19336Z" fill="#EB5757"/>
</svg>
