<svg width="21" height="21" viewBox="0 0 21 21" fill="none" xmlns="http://www.w3.org/2000/svg">
<g clip-path="url(#clip0_964_53349)">
<path fill-rule="evenodd" clip-rule="evenodd" d="M5.45061 0.373047C5.8451 0.373047 6.1649 0.692843 6.1649 1.08733V5.37305C6.1649 5.76754 5.8451 6.08733 5.45061 6.08733C5.05612 6.08733 4.73633 5.76754 4.73633 5.37305V1.08733C4.73633 0.692843 5.05612 0.373047 5.45061 0.373047Z" fill="#EB5757"/>
<path fill-rule="evenodd" clip-rule="evenodd" d="M15.4506 0.373047C15.8451 0.373047 16.1649 0.692843 16.1649 1.08733V5.37305C16.1649 5.76754 15.8451 6.08733 15.4506 6.08733C15.0561 6.08733 14.7363 5.76754 14.7363 5.37305V1.08733C14.7363 0.692843 15.0561 0.373047 15.4506 0.373047Z" fill="#EB5757"/>
<path fill-rule="evenodd" clip-rule="evenodd" d="M4.73633 3.22991C4.73633 2.83542 5.05612 2.51562 5.45061 2.51562H12.5935C12.988 2.51562 13.3078 2.83542 13.3078 3.22991C13.3078 3.6244 12.988 3.9442 12.5935 3.9442H5.45061C5.05612 3.9442 4.73633 3.6244 4.73633 3.22991Z" fill="#EB5757"/>
<path fill-rule="evenodd" clip-rule="evenodd" d="M6.16602 11.8012C6.16602 11.4067 6.48581 11.0869 6.8803 11.0869H14.0232C14.4176 11.0869 14.7374 11.4067 14.7374 11.8012C14.7374 12.1957 14.4176 12.5155 14.0232 12.5155H6.8803C6.48581 12.5155 6.16602 12.1957 6.16602 11.8012Z" fill="#EB5757"/>
<path fill-rule="evenodd" clip-rule="evenodd" d="M10.4506 7.51562C10.8451 7.51562 11.1649 7.83542 11.1649 8.22991V15.3728C11.1649 15.7673 10.8451 16.0871 10.4506 16.0871C10.0561 16.0871 9.73633 15.7673 9.73633 15.3728V8.22991C9.73633 7.83542 10.0561 7.51562 10.4506 7.51562Z" fill="#EB5757"/>
<path fill-rule="evenodd" clip-rule="evenodd" d="M3.82219 2.8291H17.2324C18.4793 2.8291 19.4901 3.83992 19.4901 5.08684V16.8655C19.4901 18.1124 18.4793 19.1232 17.2324 19.1232H3.82219C2.57527 19.1232 1.56445 18.1124 1.56445 16.8655V5.08684C1.56445 3.83992 2.57527 2.8291 3.82219 2.8291ZM3.82219 3.58168C2.99091 3.58168 2.31703 4.25556 2.31703 5.08684V16.8655C2.31703 17.6968 2.99091 18.3706 3.82219 18.3706H17.2324C18.0637 18.3706 18.7375 17.6968 18.7375 16.8655V5.08684C18.7375 4.25556 18.0637 3.58168 17.2324 3.58168H3.82219Z" fill="#EB5757"/>
<path fill-rule="evenodd" clip-rule="evenodd" d="M3.82088 2.41211H17.2311C18.7081 2.41211 19.9055 3.60948 19.9055 5.08651V16.8652C19.9055 18.3422 18.7081 19.5396 17.2311 19.5396H3.82088C2.34385 19.5396 1.14648 18.3422 1.14648 16.8652V5.08651C1.14648 3.60948 2.34385 2.41211 3.82088 2.41211ZM3.82088 3.99802C3.21973 3.99802 2.7324 4.48535 2.7324 5.08651V16.8652C2.7324 17.4663 3.21973 17.9536 3.82088 17.9536H17.2311C17.8322 17.9536 18.3196 17.4663 18.3196 16.8652V5.08651C18.3196 4.48535 17.8322 3.99802 17.2311 3.99802H3.82088ZM17.2311 2.82878H3.82088C2.57397 2.82878 1.56315 3.8396 1.56315 5.08651V16.8652C1.56315 18.1121 2.57397 19.1229 3.82088 19.1229H17.2311C18.478 19.1229 19.4888 18.1121 19.4888 16.8652V5.08651C19.4888 3.8396 18.478 2.82878 17.2311 2.82878ZM2.31573 5.08651C2.31573 4.25524 2.98961 3.58135 3.82088 3.58135H17.2311C18.0624 3.58135 18.7362 4.25524 18.7362 5.08651V16.8652C18.7362 17.6964 18.0624 18.3703 17.2311 18.3703H3.82088C2.98961 18.3703 2.31573 17.6964 2.31573 16.8652V5.08651Z" fill="#EB5757"/>
</g>
<defs>
<clipPath id="clip0_964_53349">
<rect width="20" height="20" fill="white" transform="translate(0.451172 0.373047)"/>
</clipPath>
</defs>
</svg>
