<svg width="20" height="24" viewBox="0 0 20 24" fill="none" xmlns="http://www.w3.org/2000/svg">
<path d="M16.7525 12.7504C16.7862 16.3824 19.9387 17.591 19.9736 17.6065C19.947 17.6917 19.4699 19.3289 18.3127 21.0199C17.3124 22.482 16.2742 23.9386 14.6388 23.9688C13.0318 23.9984 12.515 23.0159 10.6778 23.0159C8.84109 23.0159 8.26697 23.9386 6.74577 23.9984C5.16714 24.0582 3.96503 22.4174 2.9564 20.9608C0.895403 17.9811 -0.679627 12.5409 1.43524 8.86873C2.48586 7.0451 4.3634 5.8903 6.4013 5.86069C7.95148 5.83112 9.41466 6.9036 10.3623 6.9036C11.3093 6.9036 13.0874 5.61385 14.9566 5.80327C15.7392 5.83584 17.9357 6.11936 19.3462 8.18392C19.2325 8.25437 16.7252 9.71399 16.7525 12.7504M13.7323 3.83196C14.5704 2.81747 15.1345 1.4052 14.9806 0C13.7726 0.0485534 12.3117 0.805022 11.4452 1.81896C10.6687 2.71684 9.98856 4.15397 10.1721 5.53135C11.5186 5.63553 12.8942 4.8471 13.7323 3.83196" fill="#4F4F4F"/>
</svg>
