<svg width="11" height="7" viewBox="0 0 11 7" fill="none" xmlns="http://www.w3.org/2000/svg">
<path d="M5.40846 0.110678C5.55379 0.110488 5.69752 0.14125 5.83006 0.200917C5.96255 0.260583 6.08077 0.347773 6.17686 0.45663L10.5371 5.40293C10.6749 5.56684 10.743 5.77805 10.7268 5.99141C10.7106 6.20477 10.6114 6.40333 10.4505 6.54464C10.2894 6.68595 10.0794 6.7588 9.86535 6.7476C9.65126 6.7364 9.45001 6.64205 9.30472 6.48472L5.49201 2.15934C5.48157 2.14749 5.46872 2.13796 5.45432 2.13144C5.43992 2.12496 5.42428 2.12158 5.40846 2.12158C5.39263 2.12158 5.37699 2.12496 5.36259 2.13144C5.34819 2.13796 5.3353 2.14749 5.3249 2.15934L1.51216 6.48472C1.44184 6.56835 1.35547 6.63712 1.25814 6.68697C1.1608 6.73682 1.05447 6.76675 0.945376 6.775C0.836283 6.78325 0.726643 6.76965 0.622892 6.73501C0.519145 6.70037 0.423379 6.64537 0.34123 6.57326C0.259081 6.50115 0.192205 6.41338 0.144532 6.31511C0.0968591 6.21684 0.069351 6.11004 0.0636251 6.00101C0.0578991 5.89198 0.0740711 5.7829 0.11119 5.68019C0.148308 5.57749 0.205624 5.48322 0.27977 5.40293L4.63868 0.458393C4.73495 0.34925 4.85335 0.261821 4.98606 0.201869C5.11877 0.141916 5.26277 0.110821 5.40846 0.110678Z" fill="#4F4F4F"/>
</svg>
