<svg width="11" height="7" viewBox="0 0 11 7" fill="none" xmlns="http://www.w3.org/2000/svg">
<path d="M5.63647 6.90885C5.49113 6.90904 5.3474 6.87828 5.21487 6.81861C5.08238 6.75895 4.96415 6.67176 4.86807 6.5629L0.507799 1.6166C0.369977 1.45269 0.301888 1.24148 0.31811 1.02812C0.334288 0.814763 0.433488 0.616202 0.594465 0.474892C0.755487 0.333578 0.965487 0.260735 1.17958 0.27193C1.39367 0.28313 1.59491 0.377483 1.7402 0.534816L5.55291 4.86019C5.56335 4.87204 5.5762 4.88157 5.5906 4.88809C5.605 4.89457 5.62064 4.89795 5.63647 4.89795C5.65229 4.89795 5.66793 4.89457 5.68233 4.88809C5.69673 4.88157 5.70962 4.87204 5.72002 4.86019L9.53276 0.534816C9.60308 0.451178 9.68945 0.382411 9.78679 0.332559C9.88412 0.282707 9.99046 0.252778 10.0995 0.24453C10.2086 0.236278 10.3183 0.249878 10.422 0.284521C10.5258 0.319164 10.6215 0.374159 10.7037 0.446268C10.7858 0.518378 10.8527 0.606149 10.9004 0.704421C10.9481 0.802692 10.9756 0.909487 10.9813 1.01852C10.987 1.12755 10.9709 1.23663 10.9337 1.33934C10.8966 1.44204 10.8393 1.53631 10.7652 1.6166L6.40624 6.56114C6.30998 6.67028 6.19158 6.75771 6.05887 6.81766C5.92615 6.87761 5.78215 6.90871 5.63647 6.90885Z" fill="#4F4F4F"/>
</svg>
