<svg width="19" height="19" viewBox="0 0 19 19" fill="none" xmlns="http://www.w3.org/2000/svg">
<g clip-path="url(#clip0_964_51821)">
<path fill-rule="evenodd" clip-rule="evenodd" d="M0.509766 1.11747C0.509766 0.762426 0.797583 0.474609 1.15262 0.474609H4.29256C4.62269 0.474609 4.89915 0.724663 4.93219 1.05313L5.32872 4.99567C5.38103 4.98193 5.43594 4.97461 5.49256 4.97461H16.4939C16.8107 4.96304 17.1256 5.02974 17.4106 5.16897L17.4107 5.16898C17.6993 5.30997 17.9483 5.52088 18.1349 5.78268C18.313 6.02926 18.4304 6.31468 18.4772 6.61571C18.5242 6.91758 18.4987 7.22614 18.4031 7.51597L18.4026 7.51744L16.6926 12.6603L16.6919 12.6624C16.5577 13.0615 16.2966 13.4058 15.9482 13.6426C15.6052 13.8759 15.1961 13.9923 14.7818 13.9746H6.7001C6.23649 13.9789 5.78671 13.816 5.43327 13.5156C5.07886 13.2143 4.84528 12.7951 4.77554 12.3353C4.77392 12.3246 4.77258 12.3139 4.7715 12.3032L3.71111 1.76032H1.15262C0.797583 1.76032 0.509766 1.47251 0.509766 1.11747ZM5.45581 6.25929L6.04886 12.1557C6.07448 12.3038 6.15123 12.4384 6.26596 12.5359L6.26597 12.5359C6.38406 12.6363 6.53452 12.6907 6.68965 12.6889L6.69684 12.6889H14.7968C14.808 12.6889 14.8192 12.6892 14.8304 12.6898C14.9706 12.6971 15.1093 12.6583 15.2252 12.5794L15.2253 12.5794C15.3411 12.5006 15.428 12.3863 15.4729 12.2536C15.473 12.2532 15.4731 12.2529 15.4732 12.2526L17.1821 7.11325C17.1821 7.11307 17.1822 7.1129 17.1822 7.11272C17.214 7.01615 17.2224 6.91356 17.2067 6.81342L17.2067 6.81301C17.1911 6.71267 17.1518 6.61723 17.092 6.53464L17.0884 6.52966C17.0262 6.44212 16.943 6.37143 16.8463 6.3242C16.7498 6.27709 16.6429 6.25488 16.5356 6.25968C16.526 6.26011 16.5164 6.26032 16.5068 6.26032H5.49256C5.48023 6.26032 5.46797 6.25998 5.45581 6.25929Z" fill="#EB5757"/>
<path fill-rule="evenodd" clip-rule="evenodd" d="M13.293 17.1881C13.293 16.478 13.8687 15.9023 14.5787 15.9023C15.2887 15.9023 15.8644 16.478 15.8644 17.1881C15.8644 17.8981 15.2887 18.4738 14.5787 18.4738C13.8687 18.4738 13.293 17.8981 13.293 17.1881Z" fill="#EB5757"/>
<path fill-rule="evenodd" clip-rule="evenodd" d="M4.93555 17.1881C4.93555 16.4781 5.51113 15.9023 6.22126 15.9023C6.93137 15.9023 7.50698 16.4781 7.50698 17.1881C7.50698 17.8981 6.93137 18.4738 6.22126 18.4738C5.51113 18.4738 4.93555 17.898 4.93555 17.1881Z" fill="#EB5757"/>
</g>
<defs>
<clipPath id="clip0_964_51821">
<rect width="18" height="18" fill="white" transform="translate(0.5 0.474609)"/>
</clipPath>
</defs>
</svg>
