<svg width="24" height="21" viewBox="0 0 24 21" fill="none" xmlns="http://www.w3.org/2000/svg">
<path d="M1.47681 10.8059L10.9118 1.36295C11.0516 1.22402 11.2173 1.11399 11.3996 1.03915C11.5819 0.964303 11.7772 0.926116 11.9743 0.926766C12.1713 0.927416 12.3663 0.96689 12.5481 1.04293C12.7299 1.11898 12.895 1.2301 13.0338 1.36995L22.4768 10.8059" stroke="#EB5757" stroke-width="1.5" stroke-linecap="round" stroke-linejoin="round"/>
<path d="M19.4768 7.80773V19.8057H4.47681V7.80273" stroke="#EB5757" stroke-width="1.5" stroke-linecap="round" stroke-linejoin="round"/>
<path d="M14.9768 19.8057V15.3057C14.9768 14.51 14.6607 13.747 14.0981 13.1843C13.5355 12.6217 12.7725 12.3057 11.9768 12.3057C11.1812 12.3057 10.4181 12.6217 9.85549 13.1843C9.29288 13.747 8.97681 14.51 8.97681 15.3057V19.8057" stroke="#EB5757" stroke-width="1.5" stroke-linecap="round" stroke-linejoin="round"/>
</svg>
