<svg width="22" height="22" viewBox="0 0 22 22" fill="none" xmlns="http://www.w3.org/2000/svg">
<path d="M11.2026 9.52637H20.9125C21.0196 10.1246 21.0732 10.696 21.0732 11.2407C21.0732 13.1782 20.6669 14.9081 19.8544 16.4304C19.0419 17.9527 17.8834 19.1424 16.379 19.9996C14.8745 20.8567 13.1491 21.2853 11.2026 21.2853C9.80086 21.2853 8.46604 21.0152 7.19818 20.475C5.93032 19.9348 4.83657 19.2049 3.91693 18.2853C2.99729 17.3657 2.26738 16.2719 1.7272 15.004C1.18702 13.7362 0.916931 12.4014 0.916931 10.9996C0.916931 9.59779 1.18702 8.26297 1.7272 6.99512C2.26738 5.72726 2.99729 4.63351 3.91693 3.71387C4.83657 2.79422 5.93032 2.06431 7.19818 1.52413C8.46604 0.983956 9.80086 0.713867 11.2026 0.713867C13.8812 0.713867 16.1803 1.61119 18.1 3.40583L15.3009 6.0978C14.2026 5.0353 12.8366 4.50405 11.2026 4.50405C10.0509 4.50405 8.98613 4.79422 8.00845 5.37458C7.03077 5.95494 6.25622 6.74288 5.68479 7.73842C5.11336 8.73396 4.82765 9.82101 4.82765 10.9996C4.82765 12.1782 5.11336 13.2652 5.68479 14.2607C6.25622 15.2563 7.03077 16.0442 8.00845 16.6246C8.98613 17.2049 10.0509 17.4951 11.2026 17.4951C11.9794 17.4951 12.6937 17.388 13.3455 17.1737C13.9973 16.9594 14.533 16.6915 14.9526 16.3701C15.3723 16.0487 15.7384 15.6826 16.0509 15.2719C16.3634 14.8612 16.5933 14.4728 16.7406 14.1067C16.8879 13.7407 16.9884 13.3924 17.0419 13.0621H11.2026V9.52637Z" fill="#EB5757"/>
</svg>
