<svg width="33" height="21" viewBox="0 0 33 21" fill="none" xmlns="http://www.w3.org/2000/svg">
<rect opacity="0.2" x="0.763672" y="0.242188" width="32" height="20" rx="3" fill="#F8A031"/>
<path fill-rule="evenodd" clip-rule="evenodd" d="M13.4696 14.782C16.0685 14.782 18.1754 12.7496 18.1754 10.2426C18.1754 7.7355 16.0685 5.70312 13.4696 5.70312C10.8706 5.70312 8.76367 7.7355 8.76367 10.2426C8.76367 12.7496 10.8706 14.782 13.4696 14.782Z" fill="#EA021B"/>
<path fill-rule="evenodd" clip-rule="evenodd" d="M20.0574 14.782C22.6564 14.782 24.7633 12.7496 24.7633 10.2426C24.7633 7.7355 22.6564 5.70312 20.0574 5.70312C17.4585 5.70312 15.3516 7.7355 15.3516 10.2426C15.3516 12.7496 17.4585 14.782 20.0574 14.782Z" fill="#F79E19"/>
<path fill-rule="evenodd" clip-rule="evenodd" d="M16.7633 7C15.8921 7.82387 15.3516 8.97195 15.3516 10.2418C15.3516 11.5117 15.8921 12.6597 16.7633 13.4836C17.6346 12.6597 18.1751 11.5117 18.1751 10.2418C18.1751 8.97195 17.6346 7.82387 16.7633 7Z" fill="#FF5F00"/>
</svg>
