<svg width="14" height="19" viewBox="0 0 14 19" fill="none" xmlns="http://www.w3.org/2000/svg">
<path fill-rule="evenodd" clip-rule="evenodd" d="M7.01758 15.0518C7.32824 15.0518 7.58008 15.3036 7.58008 15.6143V18.4268C7.58008 18.7374 7.32824 18.9893 7.01758 18.9893C6.70692 18.9893 6.45508 18.7374 6.45508 18.4268V15.6143C6.45508 15.3036 6.70692 15.0518 7.01758 15.0518Z" fill="#F2F2F2"/>
<path fill-rule="evenodd" clip-rule="evenodd" d="M6.64258 2.11426C5.29638 2.11426 4.20508 3.20556 4.20508 4.55176V9.98926C4.20508 11.3355 5.29638 12.4268 6.64258 12.4268H7.39258C8.73877 12.4268 9.83008 11.3355 9.83008 9.98926V4.55176C9.83008 3.20556 8.73877 2.11426 7.39258 2.11426H6.64258ZM3.08008 4.55176C3.08008 2.58424 4.67506 0.989258 6.64258 0.989258H7.39258C9.36009 0.989258 10.9551 2.58424 10.9551 4.55176V9.98926C10.9551 11.9568 9.36009 13.5518 7.39258 13.5518H6.64258C4.67506 13.5518 3.08008 11.9568 3.08008 9.98926V4.55176Z" fill="#F2F2F2"/>
<path fill-rule="evenodd" clip-rule="evenodd" d="M1.01758 7.73926C1.32824 7.73926 1.58008 7.9911 1.58008 8.30176V9.98926C1.58008 11.3319 2.11345 12.6196 3.06285 13.569C4.01225 14.5184 5.29992 15.0518 6.64258 15.0518H7.39258C8.73524 15.0518 10.0229 14.5184 10.9723 13.569C11.9217 12.6196 12.4551 11.3319 12.4551 9.98926V8.30176C12.4551 7.9911 12.7069 7.73926 13.0176 7.73926C13.3282 7.73926 13.5801 7.9911 13.5801 8.30176V9.98926C13.5801 11.6303 12.9282 13.2041 11.7678 14.3645C10.6074 15.5249 9.03361 16.1768 7.39258 16.1768H6.64258C5.00155 16.1768 3.42774 15.5249 2.26735 14.3645C1.10697 13.2041 0.455078 11.6303 0.455078 9.98926V8.30176C0.455078 7.9911 0.706918 7.73926 1.01758 7.73926Z" fill="#F2F2F2"/>
</svg>
