<svg width="25" height="25" viewBox="0 0 25 25" fill="none" xmlns="http://www.w3.org/2000/svg">
<g clip-path="url(#clip0_964_47179)">
<path fill-rule="evenodd" clip-rule="evenodd" d="M2.26758 2.48926C1.85336 2.48926 1.51758 2.82504 1.51758 3.23926V22.7393C1.51758 23.1535 1.85336 23.4893 2.26758 23.4893H21.7676C22.1818 23.4893 22.5176 23.1535 22.5176 22.7393V3.23926C22.5176 2.82504 22.1818 2.48926 21.7676 2.48926H2.26758ZM0.0175781 3.23926C0.0175781 1.99662 1.02494 0.989258 2.26758 0.989258H21.7676C23.0102 0.989258 24.0176 1.99662 24.0176 3.23926V22.7393C24.0176 23.9819 23.0102 24.9893 21.7676 24.9893H2.26758C1.02494 24.9893 0.0175781 23.9819 0.0175781 22.7393V3.23926Z" fill="#EB5757"/>
<path fill-rule="evenodd" clip-rule="evenodd" d="M16.5176 10.2393C16.4012 10.2393 16.2864 10.2664 16.1822 10.3184C16.0781 10.3705 15.9875 10.4461 15.9176 10.5393L12.6176 14.9393C12.4872 15.1132 12.2877 15.222 12.0708 15.2374C11.8539 15.2528 11.641 15.1733 11.4873 15.0196L10.4603 13.9926C10.3843 13.9166 10.2928 13.8578 10.1921 13.8202C10.0914 13.7826 9.98385 13.7671 9.87664 13.7748C9.76944 13.7824 9.66512 13.813 9.57077 13.8645C9.47642 13.9159 9.39423 13.9871 9.32977 14.0731L5.86762 18.6893C5.61909 19.0206 5.14899 19.0878 4.81762 18.8393C4.48625 18.5907 4.41909 18.1206 4.66762 17.7893L8.12948 13.1735C8.32283 12.9155 8.5695 12.702 8.85248 12.5476C9.13554 12.3932 9.44848 12.3015 9.7701 12.2786C10.0917 12.2557 10.4145 12.3021 10.7166 12.4149C11.0187 12.5276 11.293 12.7039 11.521 12.9319C11.521 12.9319 11.5209 12.9319 11.521 12.9319L11.9365 13.3475L14.7176 9.63926C14.9272 9.35982 15.199 9.13301 15.5114 8.9768C15.8238 8.82058 16.1683 8.73926 16.5176 8.73926C16.8669 8.73926 17.2114 8.82058 17.5239 8.9768C17.8363 9.13301 18.108 9.35982 18.3176 9.63926L20.9876 13.1993C21.2362 13.5306 21.169 14.0007 20.8376 14.2493C20.5063 14.4978 20.0362 14.4306 19.7876 14.0993L17.1176 10.5393C17.0478 10.4461 16.9572 10.3705 16.853 10.3184C16.7489 10.2664 16.6341 10.2393 16.5176 10.2393Z" fill="#EB5757"/>
<path fill-rule="evenodd" clip-rule="evenodd" d="M6.39258 6.23926C5.77126 6.23926 5.26758 6.74294 5.26758 7.36426C5.26758 7.98558 5.77126 8.48926 6.39258 8.48926C7.0139 8.48926 7.51758 7.98558 7.51758 7.36426C7.51758 6.74294 7.0139 6.23926 6.39258 6.23926ZM3.76758 7.36426C3.76758 5.91451 4.94283 4.73926 6.39258 4.73926C7.84233 4.73926 9.01758 5.91451 9.01758 7.36426C9.01758 8.81401 7.84233 9.98926 6.39258 9.98926C4.94283 9.98926 3.76758 8.81401 3.76758 7.36426Z" fill="#EB5757"/>
<path fill-rule="evenodd" clip-rule="evenodd" d="M0.0175781 18.2393C0.0175781 17.825 0.353365 17.4893 0.767578 17.4893H23.2676C23.6818 17.4893 24.0176 17.825 24.0176 18.2393C24.0176 18.6535 23.6818 18.9893 23.2676 18.9893H0.767578C0.353365 18.9893 0.0175781 18.6535 0.0175781 18.2393Z" fill="#EB5757"/>
</g>
<defs>
<clipPath id="clip0_964_47179">
<rect width="24" height="24" fill="white" transform="translate(0.0175781 0.989258)"/>
</clipPath>
</defs>
</svg>
