<svg width="25" height="20" viewBox="0 0 25 20" fill="none" xmlns="http://www.w3.org/2000/svg">
<path fill-rule="evenodd" clip-rule="evenodd" d="M8.26758 10.7393C8.26758 7.42555 10.9539 4.73926 14.2676 4.73926C17.5813 4.73926 20.2676 7.42555 20.2676 10.7393C20.2676 14.053 17.5813 16.7393 14.2676 16.7393C10.9539 16.7393 8.26758 14.053 8.26758 10.7393ZM14.2676 6.23926C11.7823 6.23926 9.76758 8.25398 9.76758 10.7393C9.76758 13.2245 11.7823 15.2393 14.2676 15.2393C16.7529 15.2393 18.7676 13.2245 18.7676 10.7393C18.7676 8.25398 16.7529 6.23926 14.2676 6.23926Z" fill="#EB5757"/>
<path fill-rule="evenodd" clip-rule="evenodd" d="M10.2617 0.57498C10.6172 0.355453 11.0267 0.239178 11.4446 0.239258C11.4446 0.239258 11.4445 0.239258 11.4446 0.239258M17.0906 0.239258C17.0907 0.239258 17.0905 0.239258 17.0906 0.239258H11.4446H17.0906ZM17.0906 0.239258C17.5084 0.239178 17.918 0.355454 18.2735 0.57498C18.6289 0.794581 18.9164 1.10896 19.1034 1.48283L19.9812 3.23926H21.7676C22.3643 3.23926 22.9366 3.4763 23.3586 3.89827C23.7806 4.32026 24.0176 4.89258 24.0176 5.48926V17.4893C24.0176 18.0859 23.7806 18.6583 23.3586 19.0803C22.9366 19.5023 22.3642 19.7393 21.7676 19.7393H2.26758C1.6709 19.7393 1.09858 19.5023 0.676588 19.0803C0.254607 18.6583 0.0175781 18.0859 0.0175781 17.4893V5.48926C0.0175781 4.89253 0.254628 4.32022 0.676588 3.89827C1.09854 3.47632 1.67084 3.23926 2.26758 3.23926H8.55396L9.4317 1.48297C9.61864 1.1091 9.90627 0.794583 10.2617 0.57498M11.0499 1.85124C10.9314 1.92446 10.8357 2.02917 10.7735 2.15354C10.7734 2.15359 10.7735 2.1535 10.7735 2.15354L9.68846 4.32454C9.56144 4.5787 9.30171 4.73926 9.01758 4.73926H2.26758C2.06867 4.73926 1.8779 4.81828 1.73725 4.95893C1.5966 5.09957 1.51758 5.29035 1.51758 5.48926V17.4893C1.51758 17.6882 1.59662 17.879 1.73724 18.0196C1.87786 18.1602 2.06862 18.2393 2.26758 18.2393H21.7676C21.9665 18.2393 22.1574 18.1602 22.2979 18.0196C22.4385 17.879 22.5176 17.6882 22.5176 17.4893V5.48926C22.5176 5.2903 22.4386 5.09954 22.2979 4.95893C22.1573 4.8183 21.9665 4.73926 21.7676 4.73926H19.5176C19.2334 4.73926 18.9737 4.5787 18.8467 4.32454L17.7618 2.15369C17.7617 2.15364 17.7618 2.15374 17.7618 2.15369C17.6995 2.02931 17.6038 1.92446 17.4853 1.85124C17.3666 1.77796 17.2301 1.73922 17.0908 1.73926H11.4446C11.3054 1.73922 11.1685 1.77802 11.0499 1.85124Z" fill="#EB5757"/>
<path fill-rule="evenodd" clip-rule="evenodd" d="M4.14258 7.73926C4.34968 7.73926 4.51758 7.57136 4.51758 7.36426C4.51758 7.15715 4.34968 6.98926 4.14258 6.98926V6.23926C3.52125 6.23926 3.01758 6.74293 3.01758 7.36426C3.01758 7.98558 3.52125 8.48926 4.14258 8.48926V7.73926Z" fill="#EB5757"/>
<path fill-rule="evenodd" clip-rule="evenodd" d="M4.14258 6.23926C4.7639 6.23926 5.26758 6.74293 5.26758 7.36426C5.26758 7.98558 4.7639 8.48926 4.14258 8.48926V7.73926C3.93547 7.73926 3.76758 7.57136 3.76758 7.36426C3.76758 7.15715 3.93547 6.98926 4.14258 6.98926V6.23926Z" fill="#EB5757"/>
<path fill-rule="evenodd" clip-rule="evenodd" d="M5.26758 1.73926C5.68179 1.73926 6.01758 2.07504 6.01758 2.48926V3.98926C6.01758 4.40347 5.68179 4.73926 5.26758 4.73926C4.85336 4.73926 4.51758 4.40347 4.51758 3.98926V2.48926C4.51758 2.07504 4.85336 1.73926 5.26758 1.73926Z" fill="#EB5757"/>
</svg>
